<svg width="100%" height="100%" viewBox="0 0 80 51" fill="none" xmlns="http://www.w3.org/2000/svg">
<g clip-path="url(#clip0)">
<path d="M80 0H0V50.8172H80V0Z" fill="#EC8C6C"/>
<path d="M26.3521 31.0025H22.6116V27.2283H26.3521V31.0025V31.0025ZM22.7127 32.6874H26.2847V44.6504H22.7127V32.6874Z" fill="white"/>
<path d="M31.7102 39.9326C31.845 41.6175 32.62 42.2241 33.968 42.2241C35.2148 42.2241 35.9899 41.5164 35.9899 40.8088H39.3597V40.9099C39.3597 43.2013 37.4052 44.9537 33.968 44.9537C29.9916 44.9537 28.1719 42.46 28.1719 38.989V38.3488C28.1719 34.9115 30.059 32.3842 33.8332 32.3842C37.6074 32.3842 39.3597 34.8778 39.3597 38.3488V39.9326H31.7102V39.9326ZM31.7439 37.3715H35.754C35.6529 35.8214 35.0126 35.08 33.7321 35.08C32.4853 35.08 31.845 35.8214 31.7439 37.3715Z" fill="white"/>
<path d="M48.6268 32.6874V35.7877H45.5602V40.1011C45.5602 41.5501 46.2342 41.8534 47.3125 41.8534C47.6832 41.8534 48.2561 41.7523 48.3909 41.6849V44.6167C48.1887 44.7178 47.5484 44.92 46.4701 44.92C43.7742 44.92 41.9882 43.7742 41.9882 40.4718V35.7877H40.1685V32.6874H41.9882V29.3176H45.5602V32.6874H48.6268Z" fill="white"/>
<path d="M24.5661 22.1061C23.69 21.6007 23.016 20.8593 22.5442 19.9494C22.0724 19.0396 21.8029 17.9949 21.8029 16.8155C21.8029 15.6361 22.0387 14.6251 22.5442 13.6815C23.016 12.7717 23.69 12.064 24.5661 11.5248C25.4423 11.0194 26.4195 10.7498 27.4979 10.7498C28.5762 10.7498 29.5535 11.0194 30.4296 11.5248C31.2721 12.0303 31.9461 12.7717 32.4516 13.6815C32.9233 14.5914 33.1929 15.6361 33.1929 16.8155C33.1929 17.9949 32.957 19.0059 32.4516 19.9494C31.9798 20.8593 31.3058 21.567 30.4296 22.1061C29.5872 22.6116 28.6099 22.8812 27.4979 22.8812C26.3858 22.8812 25.4086 22.6116 24.5661 22.1061ZM29.385 19.2081C29.8905 18.6352 30.1264 17.8264 30.1264 16.8492C30.1264 15.8719 29.8905 15.0632 29.385 14.4903C28.8795 13.9174 28.2729 13.6142 27.4979 13.6142C26.7228 13.6142 26.0826 13.9174 25.6108 14.4903C25.1053 15.0632 24.8694 15.8719 24.8694 16.8492C24.8694 17.8264 25.1053 18.6352 25.6108 19.2081C26.1163 19.781 26.7565 20.0842 27.4979 20.0842C28.2729 20.0842 28.8795 19.781 29.385 19.2081Z" fill="white"/>
<path d="M52.0303 11.0531H54.6925V13.7826H52.1314V22.9823H49.1323V13.7489H47.5147V11.0194H49.0986V10.4802C49.0986 9.09855 49.4355 7.9865 50.1432 7.17774C50.8509 6.36898 51.8281 5.9646 53.1087 5.9646C53.5468 5.9646 53.9848 6.032 54.3892 6.13309C54.7936 6.23419 55.1306 6.40268 55.4002 6.60487L54.6251 9.16595C54.2881 8.86266 53.8837 8.72787 53.412 8.72787C52.5021 8.72787 52.064 9.30074 52.064 10.4802V11.0531H52.0303Z" fill="white"/>
<path d="M60.219 22.7464L55.973 11.1542H59.0733L61.9713 19.4103L64.9031 11.1542H67.8012L63.353 22.7464" fill="white"/>
<path d="M60.219 22.7464L55.973 11.1542H59.0733L61.9713 19.4103L64.9031 11.1542H67.8012L63.353 22.7464" stroke="white" stroke-width="0.5" stroke-miterlimit="10"/>
<path d="M63.6226 22.2747C62.8138 25.7456 61.6344 27.1609 59.0396 27.1609C57.9949 27.1609 57.3884 26.9587 57.1862 26.8239V24.0607C57.321 24.1281 57.8938 24.2292 58.2645 24.2292C59.3092 24.2292 60.0505 23.8922 60.0505 22.2747H63.6226Z" fill="white"/>
<path d="M42.6285 20.893C41.8534 21.9039 40.7414 22.4094 39.3597 22.4094C38.4162 22.4094 37.54 22.1735 36.7649 21.668C35.9899 21.1626 35.3496 20.4886 34.8778 19.6124C34.4061 18.7363 34.1702 17.6916 34.1702 16.5459C34.1702 15.4001 34.4061 14.3555 34.8778 13.4793C35.3496 12.6032 35.9562 11.8955 36.7649 11.4237C37.54 10.9183 38.4162 10.6824 39.3597 10.6824C40.8425 10.6824 41.9882 11.2552 42.797 12.4347V10.8846H45.6276V21.3311L42.6285 20.893ZM41.9208 18.6689C42.4263 18.1297 42.6959 17.3884 42.6959 16.5122C42.6959 15.636 42.4263 14.8947 41.9208 14.3555C41.4153 13.8163 40.7751 13.513 39.9663 13.513C39.1575 13.513 38.5173 13.7826 38.0118 14.3555C37.5063 14.8947 37.2367 15.636 37.2367 16.5122C37.2367 17.3884 37.5063 18.1297 38.0118 18.6689C38.5173 19.2081 39.1912 19.5114 39.9663 19.5114C40.7414 19.5114 41.4153 19.2418 41.9208 18.6689Z" fill="white"/>
<path d="M45.6276 21.1963C45.6276 25.2064 43.9427 27.1272 39.1912 27.1272C37.9781 27.1272 36.2932 26.925 36.0573 26.7902V24.027C36.2258 24.0944 36.866 24.3976 38.8206 24.4987C42.9318 24.6672 42.7296 22.2409 42.4937 20.7582L45.6276 21.1963Z" fill="white"/>
<path d="M13.2098 22.8812H7.98651V5.89722H13.2098C18.2645 5.89722 20.3875 8.08761 20.3875 13.9511V14.8273C20.3875 20.6908 18.2645 22.8812 13.2098 22.8812ZM13.0076 19.8484C15.9393 19.8484 16.7818 18.2308 16.7818 14.8273V13.9511C16.7818 10.5476 15.9393 8.93007 13.0076 8.93007H11.5248V19.8147H13.0076V19.8484Z" fill="white"/>
<path d="M13.3109 44.6504H7.98651V27.3294H13.3109C18.4667 27.3294 20.6234 29.5535 20.6234 35.5518V36.4279C20.6234 42.4263 18.4667 44.6504 13.3109 44.6504ZM13.1087 41.5501C16.1078 41.5501 16.9503 39.8989 16.9503 36.4279V35.5518C16.9503 32.0809 16.1078 30.4296 13.1087 30.4296H11.5922V41.5501H13.1087Z" fill="white"/>
</g>
<defs>
<clipPath id="clip0">
<rect width="80" height="51" fill="white"/>
</clipPath>
</defs>
</svg>
