<svg viewBox="0 0 24 16" fill="none" xmlns="http://www.w3.org/2000/svg">
<g clip-path="url(#clip0_5844_71650)">
<path d="M0 0V15.5H24V0H0ZM0.6 14.9V0.6H23.4V14.9H0.6Z" fill="currentColor"/>
<path d="M8.1 8.2998H7V9.3998H8.1V8.2998Z" fill="currentColor"/>
<path d="M8.09961 9.7998H7.09961V13.1998H8.09961V9.7998Z" fill="currentColor"/>
<path d="M10.1996 9.7002C9.09961 9.7002 8.59961 10.4002 8.59961 11.4002V11.6002C8.59961 12.6002 9.09961 13.3002 10.2996 13.3002C11.2996 13.3002 11.7996 12.8002 11.7996 12.2002H10.7996C10.7996 12.4002 10.5996 12.6002 10.1996 12.6002C9.79961 12.6002 9.59961 12.4002 9.59961 11.9002H11.7996V11.5002C11.7996 10.4002 11.2996 9.7002 10.1996 9.7002ZM9.69961 11.2002C9.69961 10.8002 9.89961 10.5002 10.2996 10.5002C10.6996 10.5002 10.8996 10.7002 10.8996 11.2002H9.69961Z" fill="currentColor"/>
<path d="M13.6 8.8999H12.6V9.8999H12V10.7999H12.5V11.9999C12.5 12.8999 13 13.1999 13.8 13.1999C14.1 13.1999 14.3 13.0999 14.4 13.0999V12.2999C14.4 12.2999 14.2 12.2999 14.1 12.2999C13.8 12.2999 13.6 12.1999 13.6 11.7999V10.5999H14.5V9.7999H13.6V8.8999Z" fill="currentColor"/>
<path d="M9.7998 6.2001C9.8998 5.9001 9.9998 5.6001 9.9998 5.3001C9.9998 5.0001 9.9998 4.7001 9.7998 4.4001C9.6998 4.2001 9.4998 4.0001 9.2998 3.8001C8.9998 3.7001 8.6998 3.6001 8.3998 3.6001C8.0998 3.6001 7.7998 3.7001 7.5998 3.8001C7.2998 4.0001 7.0998 4.2001 6.9998 4.4001C6.8998 4.7001 6.7998 5.0001 6.7998 5.3001C6.7998 5.6001 6.8998 6.0001 6.9998 6.2001C7.0998 6.5001 7.2998 6.7001 7.5998 6.8001C7.7998 7.0001 8.0998 7.0001 8.3998 7.0001C8.6998 7.0001 8.9998 7.0001 9.2998 6.8001C9.4998 6.7001 9.6998 6.5001 9.7998 6.2001ZM8.9998 6.0001C8.7998 6.2001 8.6998 6.3001 8.3998 6.3001C8.0998 6.3001 7.9998 6.2001 7.8998 6.0001C7.7998 5.8001 7.6998 5.6001 7.6998 5.4001C7.6998 5.1001 7.7998 4.9001 7.8998 4.7001C7.9998 4.5001 8.1998 4.4001 8.3998 4.4001C8.5998 4.4001 8.7998 4.5001 8.9998 4.7001C9.0998 4.9001 9.1998 5.1001 9.1998 5.4001C9.1998 5.6001 9.0998 5.9001 8.9998 6.0001Z" fill="currentColor"/>
<path d="M15.7996 3.0999C15.8996 3.0999 16.0996 3.0999 16.0996 3.1999L16.2996 2.4999C16.1996 2.3999 16.0996 2.3999 15.9996 2.3999C15.8996 2.3999 15.7996 2.3999 15.5996 2.3999C15.1996 2.3999 14.9996 2.4999 14.7996 2.6999C14.5996 2.8999 14.4996 3.2999 14.4996 3.5999V3.6999H14.0996V4.4999H14.5996V7.0999H15.3996V4.4999H16.0996V3.6999H15.3996V3.5999C15.3996 3.1999 15.5996 3.0999 15.7996 3.0999Z" fill="currentColor"/>
<path d="M19.0996 3.7002L18.2996 6.0002L17.4996 3.7002H16.5996L17.7996 6.9002C17.7996 7.3002 17.5996 7.5002 17.2996 7.5002C17.1996 7.5002 16.9996 7.5002 16.9996 7.5002V8.3002C17.0996 8.3002 17.1996 8.4002 17.4996 8.4002C18.1996 8.4002 18.5996 8.0002 18.7996 7.0002L19.9996 3.9002C19.8996 3.7002 19.0996 3.7002 19.0996 3.7002Z" fill="currentColor"/>
<path d="M11.0998 6.7001C11.2998 6.8001 11.5998 6.9001 11.7998 6.9001C12.1998 6.9001 12.4998 6.8001 12.6998 6.5001C12.7998 6.9001 12.6998 7.5001 11.5998 7.5001C10.9998 7.5001 10.8998 7.4001 10.7998 7.4001V8.2001C10.8998 8.2001 11.3998 8.3001 11.6998 8.3001C12.9998 8.3001 13.4998 7.8001 13.4998 6.7001V3.7001H12.6998V4.1001C12.4998 3.8001 12.0998 3.6001 11.6998 3.6001C11.3998 3.6001 11.1998 3.7001 10.9998 3.8001C10.7998 3.9001 10.5998 4.1001 10.4998 4.4001C10.3998 4.7001 10.2998 5.0001 10.2998 5.3001C10.2998 5.6001 10.3998 5.9001 10.4998 6.2001C10.6998 6.4001 10.8998 6.6001 11.0998 6.7001ZM11.3998 4.7001C11.4998 4.5001 11.6998 4.5001 11.9998 4.5001C12.1998 4.5001 12.3998 4.6001 12.5998 4.7001C12.6998 4.8001 12.7998 5.1001 12.7998 5.3001C12.7998 5.6001 12.6998 5.8001 12.5998 5.9001C12.4998 6.1001 12.2998 6.1001 11.9998 6.1001C11.7998 6.1001 11.5998 6.0001 11.3998 5.9001C11.2998 5.8001 11.1998 5.5001 11.1998 5.3001C11.1998 5.0001 11.2998 4.8001 11.3998 4.7001Z" fill="currentColor"/>
<path d="M6.40039 4.8002V4.5002C6.40039 2.8002 5.80039 2.2002 4.30039 2.2002H2.90039V7.0002H4.40039C5.80039 7.0002 6.40039 6.4002 6.40039 4.8002ZM3.90039 6.2002V3.1002H4.30039C5.10039 3.1002 5.40039 3.6002 5.40039 4.5002V4.8002C5.40039 5.8002 5.20039 6.2002 4.30039 6.2002H3.90039Z" fill="currentColor"/>
<path d="M4.40039 8.2998H2.90039V13.1998H4.40039C5.90039 13.1998 6.50039 12.5998 6.50039 10.8998V10.5998C6.50039 8.8998 5.90039 8.2998 4.40039 8.2998ZM5.40039 10.8998C5.40039 11.8998 5.20039 12.2998 4.30039 12.2998H3.90039V9.1998H4.30039C5.10039 9.1998 5.40039 9.6998 5.40039 10.5998V10.8998Z" fill="currentColor"/>
</g>
<defs>
<clipPath id="clip0_5844_71650">
<rect width="24" height="15.5" fill="white"/>
</clipPath>
</defs>
</svg>
