<svg viewBox="0 0 160 100" fill="none" xmlns="http://www.w3.org/2000/svg">
<path d="M160 0H0V100H160V0Z" fill="#EC8C6C"/>
<path d="M52.7037 61.0079H45.2227V53.5808H52.7037V61.0079V61.0079ZM45.4248 64.3235H52.5689V87.8646H45.4248V64.3235Z" fill="white"/>
<path d="M63.4204 78.5809C63.69 81.8966 65.2401 83.0902 67.936 83.0902C70.4297 83.0902 71.9798 81.6976 71.9798 80.3051H78.7195V80.504C78.7195 85.0133 74.8105 88.4616 67.936 88.4616C59.9832 88.4616 56.3438 83.5544 56.3438 76.7242V75.4642C56.3438 68.7003 60.118 63.7268 67.6664 63.7268C75.2149 63.7268 78.7195 68.634 78.7195 75.4642V78.5809H63.4204V78.5809ZM63.4878 73.5411H71.508C71.3058 70.4907 70.0253 69.0318 67.4642 69.0318C64.9705 69.0318 63.69 70.4907 63.4878 73.5411Z" fill="white"/>
<path d="M97.2535 64.3237V70.4245H91.1204V78.9125C91.1204 81.764 92.4683 82.3608 94.625 82.3608C95.3664 82.3608 96.5121 82.1619 96.7817 82.0292V87.7985C96.3773 87.9974 95.0968 88.3953 92.9401 88.3953C87.5484 88.3953 83.9763 86.1406 83.9763 79.642V70.4245H80.3369V64.3237H83.9763V57.6924H91.1204V64.3237H97.2535Z" fill="white"/>
<path d="M49.132 43.501C47.3797 42.5063 46.0318 41.0475 45.0882 39.257C44.1446 37.4666 43.6055 35.4109 43.6055 33.0899C43.6055 30.7689 44.0772 28.7796 45.0882 26.9228C46.0318 25.1323 47.3797 23.7398 49.132 22.6788C50.8843 21.6841 52.8388 21.1536 54.9955 21.1536C57.1522 21.1536 59.1067 21.6841 60.8591 22.6788C62.544 23.6735 63.8919 25.1323 64.9029 26.9228C65.8464 28.7132 66.3856 30.7689 66.3856 33.0899C66.3856 35.4109 65.9138 37.4002 64.9029 39.257C63.9593 41.0475 62.6114 42.44 60.8591 43.501C59.1741 44.4957 57.2196 45.0262 54.9955 45.0262C52.7714 45.0262 50.8169 44.4957 49.132 43.501ZM58.7697 37.7981C59.7807 36.6708 60.2525 35.0793 60.2525 33.1562C60.2525 31.2331 59.7807 29.6416 58.7697 28.5143C57.7588 27.387 56.5457 26.7902 54.9955 26.7902C53.4454 26.7902 52.1649 27.387 51.2213 28.5143C50.2104 29.6416 49.7386 31.2331 49.7386 33.1562C49.7386 35.0793 50.2104 36.6708 51.2213 37.7981C52.2323 38.9254 53.5128 39.5223 54.9955 39.5223C56.5457 39.5223 57.7588 38.9254 58.7697 37.7981Z" fill="white"/>
<path d="M104.06 21.7506H109.385V27.1219H104.263V45.2254H98.2643V27.0556H95.0293V21.6843H98.1969V20.6232C98.1969 17.9044 98.8709 15.7161 100.286 14.1246C101.702 12.5331 103.656 11.7373 106.217 11.7373C107.093 11.7373 107.969 11.8699 108.778 12.0689C109.587 12.2678 110.261 12.5994 110.8 12.9973L109.25 18.037C108.576 17.4402 107.767 17.175 106.824 17.175C105.004 17.175 104.128 18.3023 104.128 20.6232V21.7506H104.06Z" fill="white"/>
<path d="M120.437 44.7611L111.945 21.9495H118.146L123.942 38.1961L129.805 21.9495H135.602L126.705 44.7611" fill="white"/>
<path d="M120.437 44.7611L111.945 21.9495H118.146L123.942 38.1961L129.805 21.9495H135.602L126.705 44.7611" stroke="white" stroke-width="0.5" stroke-miterlimit="10"/>
<path d="M127.245 43.8325C125.627 50.6628 123.268 53.4479 118.079 53.4479C115.99 53.4479 114.776 53.05 114.372 52.7848V47.3471C114.642 47.4797 115.787 47.6787 116.529 47.6787C118.618 47.6787 120.101 47.0155 120.101 43.8325H127.245Z" fill="white"/>
<path d="M85.2564 41.1138C83.7063 43.1032 81.4822 44.0979 78.719 44.0979C76.8318 44.0979 75.0795 43.6337 73.5294 42.639C71.9793 41.6443 70.6987 40.3181 69.7552 38.5939C68.8116 36.8698 68.3398 34.8141 68.3398 32.5595C68.3398 30.3048 68.8116 28.2491 69.7552 26.525C70.6987 24.8008 71.9119 23.4083 73.5294 22.4799C75.0795 21.4852 76.8318 21.021 78.719 21.021C81.6844 21.021 83.9759 22.1483 85.5934 24.4693V21.4189H91.2548V41.9759L85.2564 41.1138ZM83.8411 36.7372C84.8521 35.6762 85.3912 34.2173 85.3912 32.4931C85.3912 30.769 84.8521 29.3101 83.8411 28.2491C82.8302 27.1881 81.5496 26.5913 79.9321 26.5913C78.3146 26.5913 77.034 27.1218 76.0231 28.2491C75.0121 29.3101 74.473 30.769 74.473 32.4931C74.473 34.2173 75.0121 35.6762 76.0231 36.7372C77.034 37.7982 78.382 38.395 79.9321 38.395C81.4822 38.395 82.8302 37.8645 83.8411 36.7372Z" fill="white"/>
<path d="M91.255 41.7107C91.255 49.6019 87.8851 53.3818 78.3822 53.3818C75.9559 53.3818 72.586 52.9839 72.1143 52.7187V47.281C72.4512 47.4136 73.7318 48.0104 77.6408 48.2094C85.8632 48.5409 85.4588 43.7664 84.9871 40.8486L91.255 41.7107Z" fill="white"/>
<path d="M26.4192 45.0265H15.9727V11.6047H26.4192C36.5287 11.6047 40.7747 15.9151 40.7747 27.4535V29.1777C40.7747 40.7161 36.5287 45.0265 26.4192 45.0265ZM26.0148 39.0583C31.8783 39.0583 33.5632 35.8753 33.5632 29.1777V27.4535C33.5632 20.7559 31.8783 17.5729 26.0148 17.5729H23.0493V38.992H26.0148V39.0583Z" fill="white"/>
<path d="M26.6213 87.8647H15.9727V53.7798H26.6213C36.9331 53.7798 41.2465 58.1564 41.2465 69.9602V71.6843C41.2465 83.488 36.9331 87.8647 26.6213 87.8647ZM26.217 81.7639C32.2153 81.7639 33.9002 78.5145 33.9002 71.6843V69.9602C33.9002 63.1299 32.2153 59.8806 26.217 59.8806H23.1841V81.7639H26.217Z" fill="white"/>
</svg>
